<svg id="Layer_1" data-name="Layer 1" xmlns="http://www.w3.org/2000/svg" viewBox="0 0 220.46 182.03"><defs><style>.cls-1{fill:#ff5640;}</style></defs><path class="cls-1" d="M122.71,125.46a39.49,39.49,0,0,1-28-11.63C79.2,98.32,27.33,95.91,17.42,115.46c-8.13,16-9.42,53.93,6.09,69.43l3.1,3.09c15.5,15.51,176.69,15.51,192.19,0l3.09-3.09c15.5-15.51,10.56-52.18,2.21-68.51-10.68-20.92-57.9-18.06-73.4-2.55a39.54,39.54,0,0,1-28,11.63Z" transform="translate(-11.51 -17.59)"/><path class="cls-1" d="M80.85,59.68c0,22.75,28.59,48.21,41.86,48.21s41.87-25.46,41.87-48.21-18.74-42.09-41.87-42.09S80.85,37,80.85,59.68Z" transform="translate(-11.51 -17.59)"/></svg>